<svg xmlns="http://www.w3.org/2000/svg" viewBox="0 0 297 297" style="enable-background:new 0 0 297 297" xml:space="preserve"><g fill="#fff"><path d="M148.5 81.888c-36.73 0-66.612 29.882-66.612 66.612s29.882 66.612 66.612 66.612 66.612-29.882 66.612-66.612S185.23 81.888 148.5 81.888zm0 113.039c-25.599 0-46.427-20.827-46.427-46.427s20.827-46.427 46.427-46.427 46.427 20.827 46.427 46.427-20.828 46.427-46.427 46.427z"/><path d="m288.789 182.326-18.21-10.514c1.454-7.658 2.188-15.469 2.188-23.313s-.734-15.655-2.188-23.313l18.21-10.514a10.092 10.092 0 0 0 3.694-13.787l-30.757-53.273c-2.787-4.826-8.955-6.48-13.787-3.694l-18.234 10.526c-11.872-10.249-25.607-18.192-40.355-23.332V10.093C189.35 4.519 184.831 0 179.257 0h-61.514c-5.574 0-10.093 4.519-10.093 10.093v21.022c-14.748 5.14-28.483 13.082-40.355 23.332L49.061 43.92c-4.829-2.788-11.001-1.133-13.787 3.694L4.517 100.887a10.092 10.092 0 0 0 3.694 13.787l18.21 10.514c-1.454 7.658-2.188 15.469-2.188 23.313s.734 15.655 2.188 23.313l-18.21 10.514a10.092 10.092 0 0 0-3.694 13.787l30.757 53.273c2.787 4.827 8.957 6.482 13.787 3.694l18.234-10.526c11.872 10.249 25.607 18.192 40.355 23.332v21.022c0 5.574 4.519 10.093 10.093 10.093h61.514c5.574 0 10.093-4.519 10.093-10.093v-21.022c14.748-5.14 28.483-13.082 40.355-23.332l18.234 10.526c4.83 2.787 11.001 1.132 13.787-3.694l30.757-53.273a10.093 10.093 0 0 0-3.694-13.789zm-39.444-59.681c2.147 8.404 3.236 17.103 3.236 25.855s-1.089 17.45-3.236 25.855a10.091 10.091 0 0 0 4.732 11.239l15.878 9.167-20.664 35.792-15.908-9.184a10.094 10.094 0 0 0-12.104 1.526c-12.514 12.244-27.984 21.187-44.735 25.863a10.092 10.092 0 0 0-7.379 9.721v18.336h-41.329v-18.336c0-4.529-3.017-8.504-7.379-9.721-16.752-4.676-32.221-13.618-44.735-25.863a10.095 10.095 0 0 0-12.104-1.526l-15.908 9.184-20.664-35.792 15.878-9.167a10.091 10.091 0 0 0 4.732-11.239c-2.147-8.404-3.236-17.103-3.236-25.855s1.089-17.45 3.236-25.855a10.091 10.091 0 0 0-4.732-11.239l-15.878-9.167L47.71 66.447l15.908 9.184a10.092 10.092 0 0 0 12.104-1.526c12.514-12.244 27.984-21.187 44.735-25.863a10.092 10.092 0 0 0 7.379-9.721V20.185h41.329v18.336c0 4.529 3.017 8.504 7.379 9.721 16.752 4.676 32.221 13.618 44.735 25.863a10.092 10.092 0 0 0 12.104 1.526l15.908-9.184 20.664 35.792-15.878 9.167a10.094 10.094 0 0 0-4.732 11.239z"/></g></svg>